<svg width="336" height="114" viewBox="0 0 336 114" fill="none" xmlns="http://www.w3.org/2000/svg">
<g clip-path="url(#clip0_854_64)">
<g filter="url(#filter0_f_854_64)">
<path fill-rule="evenodd" clip-rule="evenodd" d="M146.397 35.5149L170.083 11.8284L193.77 35.5149H196.598L171.497 10.4142L170.083 9L168.669 10.4142L143.568 35.5149H146.397ZM148.26 80.5149L170.083 102.338L191.906 80.5149H194.735L171.497 103.752L170.083 105.167L168.669 103.752L145.432 80.5149H148.26Z" fill="url(#paint0_linear_854_64)" fill-opacity="0.25"/>
</g>
<path fill-rule="evenodd" clip-rule="evenodd" d="M146.397 35.5149L170.083 11.8284L193.77 35.5149H196.598L171.497 10.4142L170.083 9L168.669 10.4142L143.568 35.5149H146.397ZM148.26 80.5149L170.083 102.338L191.906 80.5149H194.735L171.497 103.752L170.083 105.167L168.669 103.752L145.432 80.5149H148.26Z" fill="url(#paint1_linear_854_64)"/>
<path fill-rule="evenodd" clip-rule="evenodd" d="M146.397 35.5149L170.083 11.8284L193.77 35.5149H196.598L171.497 10.4142L170.083 9L168.669 10.4142L143.568 35.5149H146.397ZM148.26 80.5149L170.083 102.338L191.906 80.5149H194.735L171.497 103.752L170.083 105.167L168.669 103.752L145.432 80.5149H148.26Z" fill="url(#paint2_linear_854_64)"/>
<path d="M12.104 71V45.8H21.536C23.672 45.8 25.508 46.148 27.044 46.844C28.58 47.516 29.756 48.5 30.572 49.796C31.412 51.068 31.832 52.616 31.832 54.44C31.832 56.216 31.412 57.752 30.572 59.048C29.756 60.32 28.58 61.304 27.044 62C25.508 62.696 23.672 63.044 21.536 63.044H13.58L14.768 61.784V71H12.104ZM14.768 62L13.58 60.704H21.464C23.984 60.704 25.892 60.164 27.188 59.084C28.508 57.98 29.168 56.432 29.168 54.44C29.168 52.424 28.508 50.864 27.188 49.76C25.892 48.656 23.984 48.104 21.464 48.104H13.58L14.768 46.844V62Z" fill="white"/>
<path d="M56.3638 71.216C54.4678 71.216 52.7038 70.904 51.0718 70.28C49.4638 69.632 48.0598 68.732 46.8598 67.58C45.6838 66.404 44.7598 65.048 44.0878 63.512C43.4398 61.952 43.1158 60.248 43.1158 58.4C43.1158 56.552 43.4398 54.86 44.0878 53.324C44.7598 51.764 45.6838 50.408 46.8598 49.256C48.0598 48.08 49.4638 47.18 51.0718 46.556C52.6798 45.908 54.4438 45.584 56.3638 45.584C58.2598 45.584 60.0118 45.908 61.6198 46.556C63.2278 47.18 64.6198 48.068 65.7958 49.22C66.9958 50.372 67.9198 51.728 68.5678 53.288C69.2398 54.848 69.5758 56.552 69.5758 58.4C69.5758 60.248 69.2398 61.952 68.5678 63.512C67.9198 65.072 66.9958 66.428 65.7958 67.58C64.6198 68.732 63.2278 69.632 61.6198 70.28C60.0118 70.904 58.2598 71.216 56.3638 71.216ZM56.3638 68.84C57.8758 68.84 59.2678 68.588 60.5398 68.084C61.8358 67.556 62.9518 66.824 63.8878 65.888C64.8478 64.928 65.5918 63.824 66.1198 62.576C66.6478 61.304 66.9118 59.912 66.9118 58.4C66.9118 56.888 66.6478 55.508 66.1198 54.26C65.5918 52.988 64.8478 51.884 63.8878 50.948C62.9518 49.988 61.8358 49.256 60.5398 48.752C59.2678 48.224 57.8758 47.96 56.3638 47.96C54.8518 47.96 53.4478 48.224 52.1518 48.752C50.8558 49.256 49.7278 49.988 48.7678 50.948C47.8318 51.884 47.0878 52.988 46.5358 54.26C46.0078 55.508 45.7438 56.888 45.7438 58.4C45.7438 59.888 46.0078 61.268 46.5358 62.54C47.0878 63.812 47.8318 64.928 48.7678 65.888C49.7278 66.824 50.8558 67.556 52.1518 68.084C53.4478 68.588 54.8518 68.84 56.3638 68.84Z" fill="white"/>
<path d="M93.5104 71.216C91.6144 71.216 89.8624 70.904 88.2544 70.28C86.6464 69.632 85.2544 68.732 84.0784 67.58C82.9024 66.428 81.9784 65.072 81.3064 63.512C80.6584 61.952 80.3344 60.248 80.3344 58.4C80.3344 56.552 80.6584 54.848 81.3064 53.288C81.9784 51.728 82.9024 50.372 84.0784 49.22C85.2784 48.068 86.6824 47.18 88.2904 46.556C89.8984 45.908 91.6504 45.584 93.5464 45.584C95.3704 45.584 97.0864 45.896 98.6944 46.52C100.302 47.12 101.658 48.032 102.762 49.256L101.07 50.948C100.038 49.892 98.8984 49.136 97.6504 48.68C96.4024 48.2 95.0584 47.96 93.6184 47.96C92.1064 47.96 90.7024 48.224 89.4064 48.752C88.1104 49.256 86.9824 49.988 86.0224 50.948C85.0624 51.884 84.3064 52.988 83.7544 54.26C83.2264 55.508 82.9624 56.888 82.9624 58.4C82.9624 59.912 83.2264 61.304 83.7544 62.576C84.3064 63.824 85.0624 64.928 86.0224 65.888C86.9824 66.824 88.1104 67.556 89.4064 68.084C90.7024 68.588 92.1064 68.84 93.6184 68.84C95.0584 68.84 96.4024 68.6 97.6504 68.12C98.8984 67.64 100.038 66.872 101.07 65.816L102.762 67.508C101.658 68.732 100.302 69.656 98.6944 70.28C97.0864 70.904 95.3584 71.216 93.5104 71.216Z" fill="white"/>
<path d="M118.139 64.736L118.031 61.496L133.295 45.8H136.355L125.231 57.464L123.719 59.084L118.139 64.736ZM115.835 71V45.8H118.499V71H115.835ZM133.943 71L123.071 58.472L124.871 56.528L137.111 71H133.943Z" fill="white"/>
<path d="M151.455 57.068H164.775V59.336H151.455V57.068ZM151.743 68.696H166.899V71H149.079V45.8H166.359V48.104H151.743V68.696Z" fill="white"/>
<path d="M184.219 71V48.104H175.363V45.8H195.739V48.104H186.883V71H184.219Z" fill="white"/>
<path d="M273.779 71V45.8H286.091C289.259 45.8 291.635 46.4 293.219 47.6C294.827 48.8 295.631 50.384 295.631 52.352C295.631 53.672 295.307 54.824 294.659 55.808C294.011 56.768 293.123 57.512 291.995 58.04C290.867 58.568 289.571 58.832 288.107 58.832L288.791 57.356C290.375 57.356 291.779 57.62 293.003 58.148C294.227 58.652 295.175 59.408 295.847 60.416C296.543 61.424 296.891 62.66 296.891 64.124C296.891 66.284 296.039 67.976 294.335 69.2C292.631 70.4 290.123 71 286.811 71H273.779ZM279.575 66.608H286.379C287.891 66.608 289.031 66.368 289.799 65.888C290.591 65.384 290.987 64.592 290.987 63.512C290.987 62.456 290.591 61.676 289.799 61.172C289.031 60.644 287.891 60.38 286.379 60.38H279.143V56.132H285.371C286.787 56.132 287.867 55.892 288.611 55.412C289.379 54.908 289.763 54.152 289.763 53.144C289.763 52.16 289.379 51.428 288.611 50.948C287.867 50.444 286.787 50.192 285.371 50.192H279.575V66.608Z" fill="white"/>
<path d="M314.933 55.952H327.065V60.488H314.933V55.952ZM315.365 66.32H329.081V71H309.569V45.8H328.613V50.48H315.365V66.32Z" fill="white"/>
<path d="M250.184 71.432C246.608 71.432 243.812 70.436 241.796 68.444C239.78 66.452 238.772 63.608 238.772 59.912V45.8H244.604V59.696C244.604 62.096 245.096 63.824 246.08 64.88C247.064 65.936 248.444 66.464 250.22 66.464C251.996 66.464 253.376 65.936 254.36 64.88C255.344 63.824 255.836 62.096 255.836 59.696V45.8H261.596V59.912C261.596 63.608 260.588 66.452 258.572 68.444C256.556 70.436 253.76 71.432 250.184 71.432Z" fill="white"/>
<path d="M220.792 65.24L221.116 58.508L209.056 45.8H202.576L213.448 57.5L216.688 60.956L220.792 65.24ZM226.012 71V45.8H220.216V71H226.012ZM208.768 71L217.732 60.02L213.916 55.88L201.964 71H208.768Z" fill="white"/>
</g>
<defs>
<filter id="filter0_f_854_64" x="131.568" y="-3" width="77.0298" height="120.167" filterUnits="userSpaceOnUse" color-interpolation-filters="sRGB">
<feFlood flood-opacity="0" result="BackgroundImageFix"/>
<feBlend mode="normal" in="SourceGraphic" in2="BackgroundImageFix" result="shape"/>
<feGaussianBlur stdDeviation="6" result="effect1_foregroundBlur_854_64"/>
</filter>
<linearGradient id="paint0_linear_854_64" x1="170.083" y1="9" x2="170.083" y2="105.167" gradientUnits="userSpaceOnUse">
<stop stop-color="#E6A9FB"/>
<stop offset="1" stop-color="#C269E1"/>
</linearGradient>
<linearGradient id="paint1_linear_854_64" x1="170.083" y1="9" x2="170.083" y2="105.167" gradientUnits="userSpaceOnUse">
<stop stop-color="#AD29DB"/>
<stop offset="1" stop-color="#9A3EBB"/>
</linearGradient>
<linearGradient id="paint2_linear_854_64" x1="170.083" y1="9" x2="170.083" y2="105.167" gradientUnits="userSpaceOnUse">
<stop stop-color="#19C4EA"/>
<stop offset="0.9998" stop-color="#B4E4FF"/>
<stop offset="0.9999" stop-color="#B63591"/>
<stop offset="1" stop-color="#F7D167"/>
</linearGradient>
<clipPath id="clip0_854_64">
<rect width="336" height="114" fill="white"/>
</clipPath>
</defs>
</svg>
