<svg width="59" height="97" viewBox="0 0 59 97" fill="none" xmlns="http://www.w3.org/2000/svg">
<path fill-rule="evenodd" clip-rule="evenodd" d="M6.39679 26.5149L30.0833 2.82843L53.7697 26.5149H56.5982L31.4975 1.41421L30.0833 0L28.669 1.41421L3.56836 26.5149H6.39679ZM53.9216 69.4998H56.75L31.4975 94.7523L30.0833 96.1665L28.669 94.7523L3.4165 69.4998H6.24493L30.0833 93.3381L53.9216 69.4998Z" fill="url(#paint0_linear_896_59)"/>
<path d="M4.104 61V35.8H13.536C15.672 35.8 17.508 36.148 19.044 36.844C20.58 37.516 21.756 38.5 22.572 39.796C23.412 41.068 23.832 42.616 23.832 44.44C23.832 46.216 23.412 47.752 22.572 49.048C21.756 50.32 20.58 51.304 19.044 52C17.508 52.696 15.672 53.044 13.536 53.044H5.58L6.768 51.784V61H4.104ZM6.768 52L5.58 50.704H13.464C15.984 50.704 17.892 50.164 19.188 49.084C20.508 47.98 21.168 46.432 21.168 44.44C21.168 42.424 20.508 40.864 19.188 39.76C17.892 38.656 15.984 38.104 13.464 38.104H5.58L6.768 36.844V52Z" fill="white"/>
<path d="M50.792 55.24L51.116 48.508L39.056 35.8H32.576L43.448 47.5L46.688 50.956L50.792 55.24ZM56.012 61V35.8H50.216V61H56.012ZM38.768 61L47.732 50.02L43.916 45.88L31.964 61H38.768Z" fill="white"/>
<defs>
<linearGradient id="paint0_linear_896_59" x1="30.0833" y1="0" x2="30.0833" y2="96.1665" gradientUnits="userSpaceOnUse">
<stop stop-color="#19C4EA"/>
<stop offset="0.9998" stop-color="#B4E4FF"/>
<stop offset="0.9999" stop-color="#B63591"/>
<stop offset="1" stop-color="#F7D167"/>
</linearGradient>
</defs>
</svg>
